<svg xmlns="http://www.w3.org/2000/svg" xmlns:xlink="http://www.w3.org/1999/xlink" version="1.1" x="0px" y="0px" viewBox="0 0 32 40" enable-background="new 0 0 32 32" xml:space="preserve"><g display="none"><rect x="-51" y="-132.339" display="inline" fill="#000000" width="404.667" height="211.333"/></g><g display="none"><g display="inline"><g><g><line fill="none" stroke="#000000" stroke-miterlimit="10" x1="8.507" y1="25.041" x2="23.493" y2="25.041"/></g></g><g><g><line fill="none" stroke="#000000" stroke-miterlimit="10" x1="8.507" y1="21.5" x2="23.493" y2="21.5"/></g></g></g><g display="inline"><text transform="matrix(1 0 0 1 8.8032 13.4491)" font-family="'Arial-BoldMT'" font-size="7px">CSS</text></g><g display="inline"><g><path d="M26.5,1c0.551,0,1,0.449,1,1v28c0,0.551-0.449,1-1,1h-21c-0.551,0-1-0.449-1-1V4.126h3.155h0.443l0.298-0.328L10.937,1     H26.5 M26.5,0H10.494L7.655,3.126H3.5V30c0,1.1,0.9,2,2,2h21c1.1,0,2-0.9,2-2V2C28.5,0.9,27.6,0,26.5,0L26.5,0z"/></g></g></g><g><g><g><g><path d="M26.5,0H10.494L7.655,3.126H3.5V30c0,1.1,0.9,2,2,2h21c1.1,0,2-0.9,2-2V2C28.5,0.9,27.6,0,26.5,0z M21.739,11.69      c-0.07-0.083-0.191-0.155-0.363-0.217c-0.119-0.041-0.389-0.114-0.811-0.219c-0.543-0.135-0.924-0.3-1.143-0.495      c-0.308-0.276-0.461-0.612-0.461-1.009c0-0.255,0.072-0.494,0.217-0.716c0.145-0.223,0.354-0.392,0.625-0.508      c0.273-0.116,0.602-0.174,0.986-0.174c0.629,0,1.104,0.138,1.42,0.413c0.318,0.275,0.486,0.644,0.502,1.104L21.7,9.915      c-0.043-0.258-0.137-0.442-0.279-0.556C21.278,9.247,21.065,9.19,20.78,9.19c-0.294,0-0.523,0.061-0.69,0.181      c-0.106,0.078-0.161,0.182-0.161,0.312c0,0.118,0.051,0.22,0.15,0.304c0.128,0.107,0.438,0.219,0.93,0.336      c0.492,0.115,0.857,0.236,1.092,0.36c0.236,0.124,0.422,0.294,0.555,0.509c0.133,0.216,0.199,0.481,0.199,0.799      c0,0.287-0.08,0.556-0.238,0.807c-0.16,0.25-0.385,0.437-0.678,0.559c-0.291,0.122-0.654,0.183-1.09,0.183      c-0.633,0-1.12-0.146-1.46-0.439c-0.339-0.293-0.542-0.72-0.608-1.28l0.984-0.096c0.06,0.331,0.18,0.573,0.361,0.729      s0.426,0.232,0.732,0.232c0.326,0,0.572-0.069,0.736-0.207c0.166-0.138,0.248-0.299,0.248-0.483      C21.843,11.875,21.808,11.773,21.739,11.69z M17.069,11.69c-0.069-0.083-0.19-0.155-0.363-0.217      c-0.119-0.041-0.389-0.114-0.811-0.219c-0.542-0.135-0.923-0.3-1.142-0.495c-0.308-0.276-0.461-0.612-0.461-1.009      c0-0.255,0.072-0.494,0.217-0.716c0.145-0.223,0.354-0.392,0.625-0.508c0.272-0.116,0.602-0.174,0.986-0.174      c0.629,0,1.103,0.138,1.42,0.413c0.318,0.275,0.485,0.644,0.501,1.104L17.03,9.915c-0.043-0.258-0.136-0.442-0.278-0.556      c-0.143-0.112-0.356-0.169-0.641-0.169c-0.294,0-0.524,0.061-0.69,0.181c-0.107,0.078-0.161,0.182-0.161,0.312      c0,0.118,0.051,0.22,0.15,0.304c0.128,0.107,0.438,0.219,0.93,0.336c0.492,0.115,0.856,0.236,1.092,0.36      c0.236,0.124,0.421,0.294,0.554,0.509c0.134,0.216,0.2,0.481,0.2,0.799c0,0.287-0.079,0.556-0.239,0.807      c-0.159,0.25-0.385,0.437-0.677,0.559c-0.291,0.122-0.655,0.183-1.09,0.183c-0.634,0-1.12-0.146-1.46-0.439      c-0.339-0.293-0.542-0.72-0.608-1.28l0.984-0.096c0.06,0.331,0.18,0.573,0.36,0.729c0.182,0.155,0.426,0.232,0.733,0.232      c0.326,0,0.571-0.069,0.736-0.207c0.166-0.138,0.248-0.299,0.248-0.483C17.174,11.875,17.14,11.773,17.069,11.69z M9.781,9.045      c0.431-0.461,0.997-0.691,1.698-0.691c0.613,0,1.111,0.181,1.494,0.543c0.228,0.214,0.398,0.521,0.513,0.923l-1.002,0.239      c-0.059-0.26-0.183-0.465-0.37-0.615c-0.188-0.15-0.417-0.226-0.686-0.226c-0.372,0-0.673,0.134-0.904,0.399      c-0.231,0.268-0.347,0.699-0.347,1.296c0,0.634,0.113,1.085,0.342,1.354c0.228,0.269,0.523,0.403,0.889,0.403      c0.269,0,0.5-0.086,0.693-0.256c0.194-0.172,0.333-0.44,0.417-0.807l0.981,0.311c-0.15,0.547-0.4,0.953-0.75,1.219      c-0.351,0.266-0.794,0.398-1.332,0.398c-0.665,0-1.212-0.228-1.641-0.683c-0.428-0.454-0.643-1.076-0.643-1.864      C9.135,10.154,9.351,9.507,9.781,9.045z M23.493,25.542H8.507v-1h14.986V25.542z M23.493,22H8.507v-1h14.986V22z"/></g></g></g></g><g display="none"><g display="inline"><g><g><line fill="none" stroke="#000000" stroke-width="2" stroke-miterlimit="10" x1="8.507" y1="25.041" x2="23.493" y2="25.041"/></g></g><g><g><line fill="none" stroke="#000000" stroke-width="2" stroke-miterlimit="10" x1="8.507" y1="21.5" x2="23.493" y2="21.5"/></g></g></g><g display="inline"><text transform="matrix(1 0 0 1 8.8032 13.4491)" stroke="#000000" stroke-width="0.15" stroke-miterlimit="10" font-family="'Arial-BoldMT'" font-size="7px">CSS</text></g><g display="inline"><g><path d="M26.5,2v28h-21V5.126h2.155h0.886l0.595-0.656L11.379,2H26.5 M26.5,0H10.494L7.655,3.126H3.5V30c0,1.1,0.9,2,2,2h21     c1.1,0,2-0.9,2-2V2C28.5,0.9,27.6,0,26.5,0L26.5,0z"/></g></g></g><g display="none"><g display="inline"><g><g><line fill="none" stroke="#000000" stroke-width="0.5" stroke-miterlimit="10" x1="8.507" y1="25.041" x2="23.493" y2="25.041"/></g></g><g><g><line fill="none" stroke="#000000" stroke-width="0.5" stroke-miterlimit="10" x1="8.507" y1="21.5" x2="23.493" y2="21.5"/></g></g></g><g display="inline"><text transform="matrix(1 0 0 1 8.8032 13.4491)" font-family="'Arial-BoldMT'" font-size="7px">CSS</text></g><g display="inline"><g><path d="M26.5,0.5C27.327,0.5,28,1.173,28,2v28c0,0.827-0.673,1.5-1.5,1.5h-21C4.673,31.5,4,30.827,4,30V3.626h3.655h0.221     l0.149-0.164l2.69-2.962H26.5 M26.5,0H10.494L7.655,3.126H3.5V30c0,1.1,0.9,2,2,2h21c1.1,0,2-0.9,2-2V2C28.5,0.9,27.6,0,26.5,0     L26.5,0z"/></g></g></g><text x="0" y="47" fill="#000000" font-size="5px" font-weight="bold" font-family="'Helvetica Neue', Helvetica, Arial-Unicode, Arial, Sans-serif">Created by Alfredo @ IconsAlfredo.com</text><text x="0" y="52" fill="#000000" font-size="5px" font-weight="bold" font-family="'Helvetica Neue', Helvetica, Arial-Unicode, Arial, Sans-serif">from the Noun Project</text></svg>