<svg height='100px' width='100px'  fill="#000000" xmlns="http://www.w3.org/2000/svg" xmlns:xlink="http://www.w3.org/1999/xlink" version="1.1" x="0px" y="0px" viewBox="0 0 141.7 141.7" enable-background="new 0 0 141.7 141.7" xml:space="preserve"><g><path fill="#000000" d="M71,82.4h-9.7v28.3h2.9v-9.3h7.1c1.4,0,2.6-0.3,3.6-0.7c1-0.5,1.7-1.1,2.2-1.7s0.9-1.5,1.2-2.5   c0.3-1,0.5-1.9,0.5-2.6c0.1-0.7,0.1-1.5,0.1-2.4c0-2.7-0.6-4.8-1.9-6.5S73.6,82.4,71,82.4z M75.9,93.1c0,0.4-0.1,1-0.3,1.8   s-0.4,1.4-0.7,1.9c-0.3,0.4-0.8,0.8-1.5,1.2c-0.7,0.4-1.5,0.6-2.5,0.6h-6.7V85.2h6.6c3.4,0,5.1,2.1,5.1,6.1   C75.9,92.1,75.9,92.7,75.9,93.1z"></path><path fill="#000000" d="M92.5,100c-1.1-0.4-2.1-0.8-3.2-1.2s-2.1-0.8-2.9-1.3c-0.9-0.5-1.3-1.2-1.3-2.1c0-0.8,0.3-1.5,1-2   c0.7-0.5,1.7-0.8,3.1-0.8c1.4,0,2.5,0.3,3.4,1l0.9-2.5l-0.5-0.3c-0.3-0.2-0.9-0.4-1.6-0.6c-0.8-0.2-1.6-0.3-2.4-0.3   c-2.5,0-4.2,0.6-5.3,1.8s-1.6,2.4-1.6,3.8c0,1.4,0.5,2.5,1.5,3.5c0.8,0.8,1.7,1.4,2.8,1.8c1.1,0.4,2.1,0.7,3.2,1.1   c1.1,0.3,1.9,0.8,2.7,1.4c0.7,0.6,1.1,1.4,1.1,2.3c0,1-0.4,1.7-1.3,2.3c-0.8,0.5-1.8,0.8-3,0.8s-2.2-0.3-3.1-0.8   c-0.9-0.6-1.4-1.3-1.5-2.3l-2.8,0.1c0.1,1.6,0.7,3,2.1,4.1c1.3,1.1,3.1,1.7,5.5,1.7s4.1-0.6,5.3-1.7c1.2-1.1,1.8-2.4,1.8-3.9   c0-1.5-0.4-2.7-1.1-3.6C94.5,101.1,93.6,100.4,92.5,100z"></path><g><path fill="#000000" d="M96.5,43.8l13-23.3c0,0,0,0,0-0.1c0-0.1,0.1-0.1,0.1-0.2c0-0.1,0-0.1,0-0.2c0-0.1,0-0.1,0-0.2    c0-0.1,0-0.1-0.1-0.2c0-0.1-0.1-0.1-0.1-0.2c0-0.1-0.1-0.1-0.1-0.2c0,0,0,0,0-0.1c0,0-0.1,0-0.1-0.1c0,0-0.1-0.1-0.1-0.1    c0,0-0.1,0-0.1,0c-0.1,0-0.2,0-0.2-0.1c-0.1,0-0.2,0-0.2,0c-0.1,0-0.1,0-0.2,0c-0.1,0-0.2,0-0.2,0.1c-0.1,0-0.1,0.1-0.2,0.1    c-0.1,0-0.1,0.1-0.2,0.1c0,0,0,0-0.1,0l-19,18.9c-2.8,1.2-7.1,4.8-5,10.3c1.4,3.6,1.3,4.3,1.2,4.4c-0.1,0-0.2,0.1-0.4,0.2    c-0.3,0.1-0.6,0.3-0.9,0.5l-0.8,0.6l0.3,0.8c0.1,0.3,0.4,0.8,1.5,0.8C87,55.8,95.1,52.8,96.5,43.8z M93.1,36.9l3.2,2.5l-1.4,2.4    L91,38.9L93.1,36.9z M97.4,37.3l-2.7-2.1l8.6-8.5L97.4,37.3z M87.2,52.8c0-1.1-0.4-2.7-1.4-5c-1.6-4.2,1.8-6.5,3.3-7.3l4.9,3.6    C93,49,89.7,51.6,87.2,52.8z"></path><path fill="#000000" d="M121.5,45.3c-1.8-0.4-12.6-0.7-16.5,7c-0.8,1.6-1.9,2.6-3.5,3.1c-3.6,1.2-8-0.8-8.1-0.8    c-0.6-0.3-1.3,0-1.6,0.5c-0.3,0.5-0.1,1.2,0.6,1.5c0.2,0.1,3.2,1.4,6.6,1.4c1.1,0,2.2-0.1,3.3-0.5c2.2-0.7,3.8-2.1,4.9-4.3    c3.4-6.9,13.6-5.8,13.7-5.8c0.7,0.1,1.3-0.2,1.5-0.8C122.6,46.1,122.2,45.5,121.5,45.3z"></path></g><path fill="#000000" d="M70.9,1.2C32.4,1.2,1.2,32.4,1.2,70.9s31.2,69.6,69.6,69.6s69.6-31.2,69.6-69.6c0-0.8,0-1.5-0.1-2.3   C139.2,32.1,110,2.8,73.6,1.3C72.7,1.3,71.7,1.2,70.9,1.2L70.9,1.2z M70.9,4.1c0.8,0,1.7,0,2.5,0.1c1.3,0.3,2.2,1.3,2.1,2.4   c0,0.8,0.5,1.4,1.3,1.5c0.9,0.1,1.6-0.6,1.6-1.5c0-0.8-0.2-1.5-0.5-2.1C109.2,7.8,134,32.7,137.2,64c-0.7-0.3-1.4-0.5-2.1-0.5   c-0.9,0-1.6,0.7-1.5,1.6c0.1,0.8,0.7,1.3,1.5,1.3c1.2,0,2.2,0.9,2.4,2.2c0,0.7,0.1,1.5,0.1,2.2c0,36.9-29.9,66.7-66.7,66.7   S4.2,107.7,4.2,70.9C4.2,34,34,4.1,70.9,4.1L70.9,4.1z"></path><g><defs><ellipse id="b" cx="77" cy="65" rx="58.4" ry="58.4"></ellipse></defs><clipPath id="a"><use xlink:href="#b" overflow="visible"></use></clipPath><path clip-path="url(#a)" fill="#000000" d="M84.3-4.8c-4.8,0-8.8,3.9-8.8,8.8v53.7c0,4.8,3.9,8.8,8.8,8.8h56.8    c4.8,0,8.8-3.9,8.8-8.8V4c0-4.8-3.9-8.8-8.8-8.8H84.3z M84.3-1.9h56.8c3.3,0,5.9,2.6,5.9,5.9v53.7c0,3.3-2.6,5.9-5.9,5.9H84.3    c-3.3,0-5.9-2.6-5.9-5.9V4C78.4,0.7,81-1.9,84.3-1.9z"></path></g><path fill="#000000" d="M53.2,105.4c-0.7,0-1.3,0.2-1.8,0.7s-0.7,1.1-0.7,1.7c0,0.7,0.2,1.2,0.7,1.7c0.4,0.5,1,0.7,1.8,0.7   c0.7,0,1.3-0.2,1.8-0.7c0.4-0.5,0.7-1.1,0.7-1.7c0-0.7-0.2-1.2-0.7-1.7C54.5,105.7,53.9,105.4,53.2,105.4z"></path></g></svg>